<mxfile host="app.diagrams.net" agent="Mozilla/5.0 (Windows NT 10.0; Win64; x64) AppleWebKit/537.36 (KHTML, like Gecko) Chrome/134.0.0.0 Safari/537.36" version="26.1.0">
  <diagram name="RsBlockRecovery" id="wva9ApM2gxoNV7J-TSUx">
    <mxGraphModel dx="1373" dy="728" grid="1" gridSize="10" guides="1" tooltips="1" connect="1" arrows="1" fold="1" page="1" pageScale="1" pageWidth="850" pageHeight="1100" math="0" shadow="0">
      <root>
        <mxCell id="0" />
        <mxCell id="1" parent="0" />
        <mxCell id="Ji3_sIbGNpSb8ydD5qQ0-1" style="edgeStyle=orthogonalEdgeStyle;rounded=0;orthogonalLoop=1;jettySize=auto;html=1;exitX=1;exitY=0.5;exitDx=0;exitDy=0;entryX=0;entryY=0.5;entryDx=0;entryDy=0;" edge="1" parent="1" source="Ji3_sIbGNpSb8ydD5qQ0-4" target="Ji3_sIbGNpSb8ydD5qQ0-8">
          <mxGeometry relative="1" as="geometry" />
        </mxCell>
        <mxCell id="Ji3_sIbGNpSb8ydD5qQ0-2" style="edgeStyle=orthogonalEdgeStyle;rounded=0;orthogonalLoop=1;jettySize=auto;html=1;exitX=0.5;exitY=1;exitDx=0;exitDy=0;entryX=0;entryY=0.5;entryDx=0;entryDy=0;" edge="1" parent="1" source="Ji3_sIbGNpSb8ydD5qQ0-4" target="Ji3_sIbGNpSb8ydD5qQ0-10">
          <mxGeometry relative="1" as="geometry" />
        </mxCell>
        <mxCell id="Ji3_sIbGNpSb8ydD5qQ0-3" style="edgeStyle=orthogonalEdgeStyle;rounded=0;orthogonalLoop=1;jettySize=auto;html=1;exitX=0;exitY=0.5;exitDx=0;exitDy=0;startArrow=classic;startFill=1;endArrow=none;" edge="1" parent="1" source="Ji3_sIbGNpSb8ydD5qQ0-4">
          <mxGeometry relative="1" as="geometry">
            <mxPoint x="20" y="330" as="targetPoint" />
          </mxGeometry>
        </mxCell>
        <mxCell id="Ji3_sIbGNpSb8ydD5qQ0-23" value="sAxisIf:&lt;div&gt;axisIf(c.BUS_WIDTH, c.SYMB_WIDTH)&lt;/div&gt;" style="edgeLabel;html=1;align=left;verticalAlign=middle;resizable=0;points=[];" vertex="1" connectable="0" parent="Ji3_sIbGNpSb8ydD5qQ0-3">
          <mxGeometry x="0.8546" y="-1" relative="1" as="geometry">
            <mxPoint x="-34" y="31" as="offset" />
          </mxGeometry>
        </mxCell>
        <mxCell id="Ji3_sIbGNpSb8ydD5qQ0-4" value="RsDecoder" style="rounded=0;whiteSpace=wrap;html=1;" vertex="1" parent="1">
          <mxGeometry x="210" y="300" width="120" height="60" as="geometry" />
        </mxCell>
        <mxCell id="Ji3_sIbGNpSb8ydD5qQ0-5" style="edgeStyle=orthogonalEdgeStyle;rounded=0;orthogonalLoop=1;jettySize=auto;html=1;exitX=0;exitY=0.5;exitDx=0;exitDy=0;endArrow=none;endFill=1;startArrow=classic;startFill=1;" edge="1" parent="1" source="Ji3_sIbGNpSb8ydD5qQ0-6">
          <mxGeometry relative="1" as="geometry">
            <mxPoint x="150" y="330" as="targetPoint" />
          </mxGeometry>
        </mxCell>
        <mxCell id="Ji3_sIbGNpSb8ydD5qQ0-13" style="edgeStyle=orthogonalEdgeStyle;rounded=0;orthogonalLoop=1;jettySize=auto;html=1;entryX=0;entryY=0.5;entryDx=0;entryDy=0;" edge="1" parent="1" source="Ji3_sIbGNpSb8ydD5qQ0-6" target="Ji3_sIbGNpSb8ydD5qQ0-12">
          <mxGeometry relative="1" as="geometry" />
        </mxCell>
        <mxCell id="Ji3_sIbGNpSb8ydD5qQ0-6" value="Fifo" style="rounded=0;whiteSpace=wrap;html=1;" vertex="1" parent="1">
          <mxGeometry x="460" y="190" width="120" height="60" as="geometry" />
        </mxCell>
        <mxCell id="Ji3_sIbGNpSb8ydD5qQ0-17" style="edgeStyle=orthogonalEdgeStyle;rounded=0;orthogonalLoop=1;jettySize=auto;html=1;" edge="1" parent="1" source="Ji3_sIbGNpSb8ydD5qQ0-8" target="Ji3_sIbGNpSb8ydD5qQ0-15">
          <mxGeometry relative="1" as="geometry" />
        </mxCell>
        <mxCell id="Ji3_sIbGNpSb8ydD5qQ0-8" value="queueErrVal" style="rounded=0;whiteSpace=wrap;html=1;" vertex="1" parent="1">
          <mxGeometry x="460" y="300" width="120" height="60" as="geometry" />
        </mxCell>
        <mxCell id="Ji3_sIbGNpSb8ydD5qQ0-9" value="&lt;b style=&quot;text-align: center;&quot;&gt;errValIf:&lt;/b&gt;&lt;div style=&quot;text-align: center;&quot;&gt;vecFfsif(c.T_LEN, c.SYMB_WIDTH)&lt;/div&gt;" style="edgeLabel;html=1;align=left;verticalAlign=middle;resizable=0;points=[];labelBackgroundColor=none;" connectable="0" vertex="1" parent="1">
          <mxGeometry x="340.0033333333333" y="370" as="geometry">
            <mxPoint x="-9" y="-1" as="offset" />
          </mxGeometry>
        </mxCell>
        <mxCell id="Ji3_sIbGNpSb8ydD5qQ0-18" style="edgeStyle=orthogonalEdgeStyle;rounded=0;orthogonalLoop=1;jettySize=auto;html=1;" edge="1" parent="1" source="Ji3_sIbGNpSb8ydD5qQ0-10" target="Ji3_sIbGNpSb8ydD5qQ0-16">
          <mxGeometry relative="1" as="geometry" />
        </mxCell>
        <mxCell id="Ji3_sIbGNpSb8ydD5qQ0-10" value="queueErrPos" style="rounded=0;whiteSpace=wrap;html=1;" vertex="1" parent="1">
          <mxGeometry x="460" y="410" width="120" height="60" as="geometry" />
        </mxCell>
        <mxCell id="Ji3_sIbGNpSb8ydD5qQ0-11" value="&lt;b&gt;errPosIf:&lt;br&gt;&lt;/b&gt;&lt;span style=&quot;background-color: transparent; color: light-dark(rgb(0, 0, 0), rgb(255, 255, 255));&quot;&gt;vecFfsif(c.T_LEN, c.SYMB_WIDTH)&lt;/span&gt;" style="edgeLabel;html=1;align=left;verticalAlign=middle;resizable=0;points=[];labelBackgroundColor=none;" connectable="0" vertex="1" parent="1">
          <mxGeometry x="260.0010344827583" y="460" as="geometry" />
        </mxCell>
        <mxCell id="Ji3_sIbGNpSb8ydD5qQ0-22" style="edgeStyle=orthogonalEdgeStyle;rounded=0;orthogonalLoop=1;jettySize=auto;html=1;" edge="1" parent="1" source="Ji3_sIbGNpSb8ydD5qQ0-12">
          <mxGeometry relative="1" as="geometry">
            <mxPoint x="880" y="220" as="targetPoint" />
          </mxGeometry>
        </mxCell>
        <mxCell id="Ji3_sIbGNpSb8ydD5qQ0-12" value="XoR" style="rounded=0;whiteSpace=wrap;html=1;" vertex="1" parent="1">
          <mxGeometry x="660" y="190" width="120" height="60" as="geometry" />
        </mxCell>
        <mxCell id="Ji3_sIbGNpSb8ydD5qQ0-21" style="edgeStyle=orthogonalEdgeStyle;rounded=0;orthogonalLoop=1;jettySize=auto;html=1;exitX=0.5;exitY=0;exitDx=0;exitDy=0;" edge="1" parent="1" source="Ji3_sIbGNpSb8ydD5qQ0-15" target="Ji3_sIbGNpSb8ydD5qQ0-12">
          <mxGeometry relative="1" as="geometry" />
        </mxCell>
        <mxCell id="Ji3_sIbGNpSb8ydD5qQ0-15" value="BarrelShift" style="rounded=0;whiteSpace=wrap;html=1;" vertex="1" parent="1">
          <mxGeometry x="660" y="300" width="120" height="60" as="geometry" />
        </mxCell>
        <mxCell id="Ji3_sIbGNpSb8ydD5qQ0-20" style="edgeStyle=orthogonalEdgeStyle;rounded=0;orthogonalLoop=1;jettySize=auto;html=1;entryX=0.5;entryY=1;entryDx=0;entryDy=0;" edge="1" parent="1" source="Ji3_sIbGNpSb8ydD5qQ0-16" target="Ji3_sIbGNpSb8ydD5qQ0-15">
          <mxGeometry relative="1" as="geometry">
            <Array as="points">
              <mxPoint x="830" y="440" />
              <mxPoint x="830" y="380" />
              <mxPoint x="720" y="380" />
            </Array>
          </mxGeometry>
        </mxCell>
        <mxCell id="Ji3_sIbGNpSb8ydD5qQ0-26" value="shiftVal" style="edgeLabel;html=1;align=center;verticalAlign=middle;resizable=0;points=[];" vertex="1" connectable="0" parent="Ji3_sIbGNpSb8ydD5qQ0-20">
          <mxGeometry x="-0.0385" relative="1" as="geometry">
            <mxPoint x="-20" y="50" as="offset" />
          </mxGeometry>
        </mxCell>
        <mxCell id="Ji3_sIbGNpSb8ydD5qQ0-27" style="edgeStyle=orthogonalEdgeStyle;rounded=0;orthogonalLoop=1;jettySize=auto;html=1;endArrow=none;startFill=0;" edge="1" parent="1" source="Ji3_sIbGNpSb8ydD5qQ0-16">
          <mxGeometry relative="1" as="geometry">
            <mxPoint x="830" y="500" as="targetPoint" />
            <Array as="points">
              <mxPoint x="830" y="440" />
            </Array>
          </mxGeometry>
        </mxCell>
        <mxCell id="Ji3_sIbGNpSb8ydD5qQ0-28" style="edgeStyle=orthogonalEdgeStyle;rounded=0;orthogonalLoop=1;jettySize=auto;html=1;endArrow=none;startFill=1;startArrow=classic;" edge="1" parent="1" source="Ji3_sIbGNpSb8ydD5qQ0-16">
          <mxGeometry relative="1" as="geometry">
            <mxPoint x="830" y="500" as="targetPoint" />
            <Array as="points">
              <mxPoint x="720" y="500" />
            </Array>
          </mxGeometry>
        </mxCell>
        <mxCell id="Ji3_sIbGNpSb8ydD5qQ0-16" value="BarrelShift" style="rounded=0;whiteSpace=wrap;html=1;" vertex="1" parent="1">
          <mxGeometry x="660" y="410" width="120" height="60" as="geometry" />
        </mxCell>
        <mxCell id="Ji3_sIbGNpSb8ydD5qQ0-25" value="mAxisIf:&lt;div&gt;axisIf(c.BUS_WIDTH, c.SYMB_WIDTH)&lt;/div&gt;" style="edgeLabel;html=1;align=left;verticalAlign=middle;resizable=0;points=[];" vertex="1" connectable="0" parent="1">
          <mxGeometry x="789.9971305872041" y="250.00042759905608" as="geometry" />
        </mxCell>
      </root>
    </mxGraphModel>
  </diagram>
</mxfile>
